{"accessors":[{"bufferView":0,"byteOffset":0,"componentType":5126,"count":4,"max":[0.16,0.10300000000000001,0.0],"min":[0.16,0.015,-0.001],"type":"VEC3"},{"bufferView":0,"byteOffset":48,"componentType":5126,"count":4,"max":[0.16,0.10300000000000001,0.0],"min":[0.015,0.10300000000000001,-0.001],"type":"VEC3"},{"bufferView":0,"byteOffset":96,"componentType":5126,"count":4,"max":[0.015,0.10300000000000001,0.0],"min":[0.015,0.015,-0.001],"type":"VEC3"},{"bufferView":0,"byteOffset":144,"componentType":5126,"count":4,"max":[0.16,0.015,0.0],"min":[0.015,0.015,-0.001],"type":"VEC3"},{"bufferView":0,"byteOffset":192,"componentType":5126,"count":4,"max":[-1.1102230246251566e-18,0.108,0.0],"min":[-7.771561172376097e-18,0.009999999999999981,-0.001],"type":"VEC3"},{"bufferView":0,"byteOffset":240,"componentType":5126,"count":16,"max":[0.01,0.009999999999999981,0.0],"min":[-1.1102230246251566e-18,0.0,-0.001],"type":"VEC3"},{"bufferView":0,"byteOffset":432,"componentType":5126,"count":4,"max":[0.165,0.0,0.0],"min":[0.01,-1.7763568394002502e-17,-0.001],"type":"VEC3"},{"bufferView":0,"byteOffset":480,"componentType":5126,"count":16,"max":[0.17500000000000002,0.01,0.0],"min":[0.165,-1.7763568394002502e-17,-0.001],"type":"VEC3"},{"bufferView":0,"byteOffset":672,"componentType":5126,"count":4,"max":[0.17500000000000002,0.108,0.0],"min":[0.17500000000000002,0.01,-0.001],"type":"VEC3"},{"bufferView":0,"byteOffset":720,"componentType":5126,"count":16,"max":[0.17500000000000002,0.11800000000000001,0.0],"min":[0.165,0.108,-0.001],"type":"VEC3"},{"bufferView":0,"byteOffset":912,"componentType":5126,"count":4,"max":[0.165,0.11800000000000001,0.0],"min":[0.00999999999999999,0.11800000000000001,-0.001],"type":"VEC3"},{"bufferView":0,"byteOffset":960,"componentType":5126,"count":16,"max":[0.00999999999999999,0.11800000000000001,0.0],"min":[-7.771561172376097e-18,0.108,-0.001],"type":"VEC3"},{"bufferView":0,"byteOffset":1152,"componentType":5126,"count":36,"max":[0.17500000000000002,0.11800000000000001,-0.001],"min":[-7.771561172376097e-18,-1.7763568394002502e-17,-0.001],"type":"VEC3"},{"bufferView":0,"byteOffset":1584,"componentType":5126,"count":36,"max":[0.17500000000000002,0.11800000000000001,0.0],"min":[-7.771561172376097e-18,-1.3322676295501901e-17,0.0],"type":"VEC3"},{"bufferView":1,"byteOffset":0,"componentType":5126,"count":4,"type":"VEC3"},{"bufferView":1,"byteOffset":48,"componentType":5126,"count":4,"type":"VEC3"},{"bufferView":1,"byteOffset":96,"componentType":5126,"count":4,"type":"VEC3"},{"bufferView":1,"byteOffset":144,"componentType":5126,"count":4,"type":"VEC3"},{"bufferView":1,"byteOffset":192,"componentType":5126,"count":4,"type":"VEC3"},{"bufferView":1,"byteOffset":240,"componentType":5126,"count":16,"type":"VEC3"},{"bufferView":1,"byteOffset":432,"componentType":5126,"count":4,"type":"VEC3"},{"bufferView":1,"byteOffset":480,"componentType":5126,"count":16,"type":"VEC3"},{"bufferView":1,"byteOffset":672,"componentType":5126,"count":4,"type":"VEC3"},{"bufferView":1,"byteOffset":720,"componentType":5126,"count":16,"type":"VEC3"},{"bufferView":1,"byteOffset":912,"componentType":5126,"count":4,"type":"VEC3"},{"bufferView":1,"byteOffset":960,"componentType":5126,"count":16,"type":"VEC3"},{"bufferView":1,"byteOffset":1152,"componentType":5126,"count":36,"type":"VEC3"},{"bufferView":1,"byteOffset":1584,"componentType":5126,"count":36,"type":"VEC3"},{"bufferView":2,"byteOffset":0,"componentType":5123,"count":6,"type":"SCALAR"},{"bufferView":2,"byteOffset":12,"componentType":5123,"count":6,"type":"SCALAR"},{"bufferView":2,"byteOffset":24,"componentType":5123,"count":6,"type":"SCALAR"},{"bufferView":2,"byteOffset":36,"componentType":5123,"count":6,"type":"SCALAR"},{"bufferView":2,"byteOffset":48,"componentType":5123,"count":6,"type":"SCALAR"},{"bufferView":2,"byteOffset":60,"componentType":5123,"count":42,"type":"SCALAR"},{"bufferView":2,"byteOffset":144,"componentType":5123,"count":6,"type":"SCALAR"},{"bufferView":2,"byteOffset":156,"componentType":5123,"count":42,"type":"SCALAR"},{"bufferView":2,"byteOffset":240,"componentType":5123,"count":6,"type":"SCALAR"},{"bufferView":2,"byteOffset":252,"componentType":5123,"count":42,"type":"SCALAR"},{"bufferView":2,"byteOffset":336,"componentType":5123,"count":6,"type":"SCALAR"},{"bufferView":2,"byteOffset":348,"componentType":5123,"count":42,"type":"SCALAR"},{"bufferView":2,"byteOffset":432,"componentType":5123,"count":108,"type":"SCALAR"},{"bufferView":2,"byteOffset":648,"componentType":5123,"count":108,"type":"SCALAR"}],"asset":{"generator":"Open CASCADE Technology 7.8 [dev.opencascade.org]","version":"2.0"},"bufferViews":[{"buffer":0,"byteLength":2016,"byteOffset":0,"byteStride":12,"target":34962},{"buffer":0,"byteLength":2016,"byteOffset":2016,"byteStride":12,"target":34962},{"buffer":0,"byteLength":864,"byteOffset":4032,"target":34963}],"buffers":[{"byteLength":4896,"uri":"cell_separator.bin"}],"materials":[{"name":"mat_0","pbrMetallicRoughness":{"baseColorFactor":[0.8069522976875305,0.41788509488105774,0.016807373613119125,1.0]},"doubleSided":true}],"meshes":[{"name":"cell sepator for Tafel v2","primitives":[{"attributes":{"NORMAL":14,"POSITION":0},"indices":28,"material":0,"mode":4},{"attributes":{"NORMAL":15,"POSITION":1},"indices":29,"material":0,"mode":4},{"attributes":{"NORMAL":16,"POSITION":2},"indices":30,"material":0,"mode":4},{"attributes":{"NORMAL":17,"POSITION":3},"indices":31,"material":0,"mode":4},{"attributes":{"NORMAL":18,"POSITION":4},"indices":32,"material":0,"mode":4},{"attributes":{"NORMAL":19,"POSITION":5},"indices":33,"material":0,"mode":4},{"attributes":{"NORMAL":20,"POSITION":6},"indices":34,"material":0,"mode":4},{"attributes":{"NORMAL":21,"POSITION":7},"indices":35,"material":0,"mode":4},{"attributes":{"NORMAL":22,"POSITION":8},"indices":36,"material":0,"mode":4},{"attributes":{"NORMAL":23,"POSITION":9},"indices":37,"material":0,"mode":4},{"attributes":{"NORMAL":24,"POSITION":10},"indices":38,"material":0,"mode":4},{"attributes":{"NORMAL":25,"POSITION":11},"indices":39,"material":0,"mode":4},{"attributes":{"NORMAL":26,"POSITION":12},"indices":40,"material":0,"mode":4},{"attributes":{"NORMAL":27,"POSITION":13},"indices":41,"material":0,"mode":4}]}],"nodes":[{"mesh":0,"name":"cell sepator for Tafel v2"}],"scene":0,"scenes":[{"nodes":[0]}]}